<svg xmlns="http://www.w3.org/2000/svg" width="100" height="100" fill="none"><circle cx="50.278" cy="50.278" r="45.833" fill="#E3FBFD"/><path fill="#014266" d="M1.165 67.684a1.111 1.111 0 0 0-.035 1.933L36.4 90.48c.191.113.412.166.633.153l13.322-.816a1.11 1.11 0 0 0 .544-.181l26.386-17.394c.66-.434.668-1.4.015-1.845L41.873 46.243a1.111 1.111 0 0 0-1.157-.058l-39.551 21.5z" opacity=".1"/><path fill="#0B9F6A" d="M50.464 54.875 20.19 72.3l-.002-25.31 30.277-17.425v25.309z"/><path fill="#007B56" d="M80.74 72.3 50.463 54.876l.002-25.309L80.74 46.991z"/><path fill="#242629" d="M80.74 72.3 50.463 54.876l.002-25.309L80.74 46.991z" opacity=".2"/><path fill="#007B56" d="M50.468 29.58 22.71 64.795l27.758 17.779z" opacity=".65"/><path fill="#0B9F6A" d="M80.74 72.3 50.463 89.727 20.187 72.3l30.276-17.425z"/><path fill="#007B56" d="M50.464 89.727 20.188 72.302l.001-25.311 30.275 17.426z"/><path fill="#8BD383" d="M80.74 72.302 50.465 89.727l-.002-25.31L80.74 46.99v25.311z"/><path fill="#007B56" d="m69.329 78.87-3.68 2.084v-24.34l3.68-2.34z" opacity=".2"/><path fill="#16AF6F" d="M50.464 29.566 41.03 18.41 9.897 34.812 20.221 46.99l30.243-17.425z"/><path fill="#8BD383" d="M50.464 29.566 41.03 18.41 9.898 34.823l10.323 12.168z" opacity=".75"/><path fill="#007B56" d="M59.99 17.843 50.464 29.55 80.74 46.99l9.815-12.734zm-.401 45.172 30.127-17.484-8.976 1.46-30.277 17.447 9.126-1.423z"/><path fill="#242629" d="M33.123 54.446v-.009l-1.555-.895v25.31l1.464.843 1.846 1.062v-25.3l-1.755-1.011z" opacity=".2"/><path fill="#8BD383" d="m20.187 46.99-6.962-1.07L43.28 63.44l7.183.998z"/><path fill="#fff" d="m20.187 46.99-6.962-1.07L43.28 63.44l7.183.998z" opacity=".4"/></svg>