<svg xmlns="http://www.w3.org/2000/svg" width="58" height="58" fill="none"><g clip-path="url(#a)"><path fill-rule="evenodd" clip-rule="evenodd" d="M57.91 29A29 29 0 1 0 4.26 44.26h49.32A28.82 28.82 0 0 0 57.91 29Z" fill="#AAE1FB"/><path fill-rule="evenodd" clip-rule="evenodd" d="M4.2 44.26a29 29 0 0 0 49.32 0H4.2Z" fill="#00599A"/><path d="m52.88 20.97-13.95-2.36v-8.12L20.11 5.74v40.97l32.77-2.63V20.97Z" fill="#9CDFEF"/><path d="m20.1 5.74-7.6 2.54v9.05l-6.28 1.58v26.15l13.88 1.65h.01V5.74h-.01Z" fill="#8BC3D5"/><path d="M38.92 18.61v-8.12L20.1 5.74l-7.61 2.54v9l-6.27 1.6v26.18l13.88 1.66 32.8-2.66V21l-13.98-2.39Zm-27.58 24.9-3-.27V32.88l3-.15v10.78Zm0-12.95-3 .24V20.45l3-.67v10.78ZM29.27 43.8l-9.27.51-6.34-.59V32.61l6.45-.27 9.21.21-.05 11.25Zm0-13.44L20 29.85l-6.34.51V19.24l6.34-1.4 9.32 1.39-.05 11.13Zm8 12.82-4.77.31V32.74h4.77v10.44Zm0-14.45-4.77-.35v-6.52l4.77.68v6.19Zm0-12.44L19.9 13l-6.34 1.79v-4.45L19.9 8.2l17.39 4-.02 4.09Zm9.6 7.5 3.58.46v5.47l-3.58-.27v-5.66Zm-2.66 19.05-4 .22V33h4v9.84Zm.12-13.58L40.26 29v-6l4.07.56v5.7Zm6.27 13.12-3.72.22v-9.32h3.72v9.1Z" fill="#fff"/><path d="M37.34 12.18v4.14L20.1 13.08v4.8l9.21 1.38v11.12l-9.21-.5v2.46l9.21.21V43.8l-9.21.5v2.42l32.8-2.66V21l-14-2.37v-8.12L20.12 5.76v2.53l17.22 3.89Zm0 31.08-4.77.3v-10.8h4.77v10.5Zm0-14.45-4.77-.35v-6.52l4.77.68v6.19Zm9.6-4.94 3.58.46v5.47l-3.58-.28v-5.65Zm0 9.46h3.72v9.11l-3.72.22v-9.33ZM40.35 23l4.07.56v5.79L40.35 29v-6Zm0 10.14h4v9.78l-4 .16v-9.94Z" fill="#429DB2"/></g><defs><clipPath id="a"><path fill="#fff" d="M0 0h58v58H0z"/></clipPath></defs></svg>