<svg xmlns="http://www.w3.org/2000/svg" width="58" height="58" fill="none"><g clip-path="url(#a)"><path fill-rule="evenodd" clip-rule="evenodd" d="M15 23.5C22.7 28 34.8 34.3 45.6 31c4-1.4 8.3-1.9 12.5-1.3v-.7a29 29 0 0 0-56.8-8.4c3.4-2 9.1.2 13.9 3Z" fill="#AAE1FB"/><path fill-rule="evenodd" clip-rule="evenodd" d="M45.5 30.9c-10.8 3.4-22.8-4.6-30.3-9.1-4.7-2.9-10.6-3.2-14-1.3A28.8 28.8 0 0 0 5 45.2h48l1-1.5c2.5-4.3 4-9.2 4-14.1-4.2-.6-8.5-.1-12.5 1.3Z" fill="#16AF6F"/><path fill-rule="evenodd" clip-rule="evenodd" d="M10.4 51.2a29 29 0 0 0 42.6-6H5c1.5 2.2 3.4 4.2 5.4 6Z" fill="#007B56"/><path d="M19.7 45.2v-28L35.3 6.9l15 9.9v28.5H19.8Z" fill="#fff"/><path d="M33 17.3h-6.6v6.5H33v-6.5Z" fill="#7AB5E5"/><path d="M25.6 7.4h-3.4v7.1h3.4v-7Z" fill="#fff"/><path d="M44.5 17.3h-6.6v6.5h6.6v-6.5Z" fill="#7AB5E5"/><path d="M44.5 31.3h-6.6v14h6.6v-14Z" fill="#FE9247"/><path d="M34.2 31.3H23v6.5h11.2v-6.5Z" fill="#7AB5E5"/><path d="M16.5 20.2a1 1 0 0 1-.8-.5 1 1 0 0 1 .3-1.4L34.8 5.6A1 1 0 0 1 36 7.3L17.1 20a1 1 0 0 1-.6.2Z" fill="#00599A"/><path d="M54.3 20.2a1 1 0 0 1-.5-.2L34.9 7.3A1 1 0 1 1 36 5.6l18.9 12.7a1 1 0 0 1-.6 1.9Z" fill="#00599A"/><path fill-rule="evenodd" clip-rule="evenodd" d="M20.2 56.5 38 45.2h6.6L39 55.8c-.1.7-10.7 4.2-18.9.7Z" fill="#A6CDDF"/></g><defs><clipPath id="a"><path fill="#fff" d="M0 0h58v58H0z"/></clipPath></defs></svg>