<svg width="53" height="26" viewBox="0 0 53 26" fill="none" xmlns="http://www.w3.org/2000/svg">
<g clip-path="url(#clip0_1_2)">
<path d="M2.92 21V4.68H5.848V21H2.92ZM9.3814 21V9.384H12.0694V10.92C12.4534 10.376 12.9654 9.944 13.6054 9.624C14.2614 9.304 14.9894 9.144 15.7894 9.144C17.0534 9.144 18.0774 9.496 18.8614 10.2C19.6454 10.904 20.0374 11.928 20.0374 13.272V21H17.2774V13.824C17.2774 13.088 17.0774 12.528 16.6774 12.144C16.2774 11.744 15.6694 11.544 14.8534 11.544C14.1334 11.544 13.5014 11.76 12.9574 12.192C12.4134 12.624 12.1414 13.224 12.1414 13.992V21H9.3814ZM23.1393 21V9.384H25.8033V10.92C26.2033 10.312 26.6993 9.904 27.2913 9.696C27.8993 9.488 28.4753 9.384 29.0193 9.384H29.9553V11.88H28.9713C28.1873 11.88 27.4833 12.04 26.8593 12.36C26.2353 12.664 25.9233 13.152 25.9233 13.824V21H23.1393ZM39.5883 21V19.512C39.1883 20.04 38.6523 20.464 37.9803 20.784C37.3243 21.088 36.5963 21.24 35.7963 21.24C34.5323 21.24 33.5243 20.888 32.7723 20.184C32.0203 19.48 31.6443 18.456 31.6443 17.112V9.384H34.4043V16.56C34.4043 17.28 34.5963 17.84 34.9803 18.24C35.3803 18.64 35.9803 18.84 36.7803 18.84C37.5483 18.84 38.1883 18.616 38.7003 18.168C39.2123 17.72 39.4683 17.128 39.4683 16.392V9.384H42.2283V21H39.5883ZM52.291 21H50.371C48.803 21 47.6992 20.672 47.0592 20.016C46.4192 19.344 46.0992 18.24 46.0992 16.704V11.832H44.2272V9.384H46.0992V6.432H48.859V9.384H52.219V11.832H48.859V16.656C48.859 17.36 49.003 17.856 49.291 18.144C49.595 18.416 50.043 18.552 50.635 18.552H52.291V21Z" fill="#006CEE"/>
</g>
<defs>
<clipPath id="clip0_1_2">
<rect width="53" height="26" fill="white"/>
</clipPath>
</defs>
</svg>
